<?xml version="1.0" standalone="no"?>
<!DOCTYPE svg PUBLIC "-//W3C//DTD SVG 20010904//EN"
 "http://www.w3.org/TR/2001/REC-SVG-20010904/DTD/svg10.dtd">
<svg version="1.0" xmlns="http://www.w3.org/2000/svg"
 width="500.000000pt" height="500.000000pt" viewBox="0 0 500.000000 500.000000"
 preserveAspectRatio="xMidYMid meet">

<g transform="translate(0.000000,500.000000) scale(0.100000,-0.100000)"
fill="#000000" stroke="none">
<path d="M2360 4794 c46 -10 48 -25 1 -18 -42 7 -43 6 -31 -15 6 -12 18 -25
26 -28 8 -3 14 -11 14 -19 0 -7 9 -18 21 -24 19 -11 20 -10 9 9 -8 15 -8 21 0
21 15 0 40 -25 40 -40 0 -6 5 -21 12 -33 7 -12 13 -29 14 -37 2 -8 10 -20 19
-26 24 -18 26 -80 4 -105 -10 -11 -16 -26 -13 -32 2 -7 0 -18 -5 -25 -6 -11
-14 -8 -36 12 -15 14 -24 30 -20 35 3 6 1 11 -6 11 -7 0 -10 3 -6 6 9 9 -21
86 -43 109 -11 12 -18 24 -15 27 3 3 -12 17 -34 31 -22 14 -42 34 -45 44 -4
13 -15 18 -38 17 -35 -1 -78 14 -78 27 0 4 8 12 18 18 15 8 14 11 -11 20 -35
13 -70 14 -122 1 -22 -6 -71 -11 -110 -12 -53 0 -63 -2 -40 -8 24 -6 26 -8 8
-9 -13 0 -23 -5 -23 -9 0 -4 -16 -9 -36 -10 -23 -2 -33 1 -29 8 8 13 -36 13
-55 -1 -12 -8 -9 -10 13 -6 32 5 33 3 7 -25 -10 -12 -17 -24 -15 -28 3 -5 -2
-10 -10 -14 -8 -3 -15 -11 -15 -17 0 -8 13 -10 41 -5 26 4 38 3 34 -4 -3 -5
-16 -10 -28 -10 -47 0 -94 -21 -134 -61 -24 -23 -43 -50 -43 -60 0 -10 -5 -21
-12 -25 -7 -4 -8 -3 -4 4 4 7 5 12 3 12 -12 0 -57 -79 -57 -101 0 -13 -9 -43
-20 -66 -10 -24 -16 -43 -11 -43 4 0 50 18 102 41 249 108 562 137 820 76 109
-27 233 -72 303 -111 44 -24 79 -25 69 0 -4 12 3 14 38 10 24 -2 49 -5 54 -6
20 -5 32 1 65 30 19 17 40 28 47 26 7 -3 12 -1 10 4 -2 10 32 34 66 46 9 3 17
14 17 23 0 14 2 14 10 1 8 -13 10 -12 10 3 0 27 15 20 54 -24 20 -23 36 -37
36 -31 0 13 -61 74 -124 124 -32 26 -52 35 -60 29 -7 -6 -21 -1 -41 16 -29 25
-29 25 -2 9 15 -9 27 -12 27 -6 0 12 -88 70 -104 70 -6 0 1 -8 17 -18 15 -9
27 -20 27 -25 0 -5 -15 0 -32 11 -44 27 -126 55 -144 48 -15 -6 -57 10 -198
79 -92 44 -125 66 -70 44 40 -15 42 -1 3 15 -19 8 -64 17 -99 20 -36 3 -54 2
-40 0z m-32 -189 c-3 -3 -9 2 -12 12 -6 14 -5 15 5 6 7 -7 10 -15 7 -18z
m-391 -1 c-3 -3 -12 -4 -19 -1 -8 3 -5 6 6 6 11 1 17 -2 13 -5z m916 -78 c21
-15 36 -31 33 -34 -3 -3 0 -12 7 -20 10 -13 9 -14 -10 -3 -13 6 -23 16 -23 21
0 6 -9 10 -19 10 -24 0 -38 19 -21 30 8 5 7 9 -4 13 -9 4 -16 12 -16 19 0 8 3
9 8 3 4 -6 24 -23 45 -39z m17 22 c0 -6 -6 -5 -15 2 -8 7 -15 14 -15 16 0 2 7
1 15 -2 8 -4 15 -11 15 -16z m-75 -16 c-3 -3 -11 0 -18 7 -9 10 -8 11 6 5 10
-3 15 -9 12 -12z m288 -54 c9 -9 17 -20 17 -23 0 -10 -80 59 -80 69 0 9 27
-11 63 -46z"/>
<path d="M1833 4783 c9 -2 25 -2 35 0 9 3 1 5 -18 5 -19 0 -27 -2 -17 -5z"/>
<path d="M1658 4743 c6 -2 18 -2 25 0 6 3 1 5 -13 5 -14 0 -19 -2 -12 -5z"/>
<path d="M2607 4739 c7 -7 15 -10 18 -7 3 3 -2 9 -12 12 -14 6 -15 5 -6 -5z"/>
<path d="M1515 4701 c-104 -40 -265 -117 -265 -127 0 -3 6 -4 13 -1 6 3 29 12
50 21 52 23 46 12 -8 -14 -25 -12 -63 -37 -84 -54 -51 -43 -100 -64 -110 -47
-7 11 -108 -57 -196 -133 l-30 -26 29 10 c27 10 28 9 15 -6 -13 -16 -12 -16 9
-5 12 6 27 9 34 5 6 -4 9 -1 6 7 -3 8 -11 13 -17 11 -6 -1 -11 2 -11 8 0 15
16 12 30 -5 7 -8 19 -15 27 -15 7 0 16 -7 19 -15 4 -8 14 -15 24 -15 25 0 36
-20 19 -31 -8 -5 -9 -9 -3 -9 5 0 15 5 22 12 9 9 17 0 34 -38 28 -61 33 -95
12 -87 -8 3 -14 0 -14 -7 0 -6 -4 -8 -10 -5 -6 3 -7 -1 -4 -9 3 -9 10 -16 14
-16 4 0 5 -11 2 -25 -2 -14 -8 -22 -13 -20 -4 3 -6 12 -2 20 3 10 -1 15 -13
15 -12 0 -28 16 -43 45 -13 25 -29 45 -36 45 -6 0 -26 7 -44 16 -21 10 -46 14
-74 10 -23 -3 -51 -5 -62 -6 -17 0 -18 -2 -5 -10 11 -8 8 -9 -11 -4 -23 5 -30
0 -49 -33 -12 -22 -37 -52 -56 -67 -44 -35 -44 -25 1 20 19 19 35 37 35 40 0
14 -42 -21 -79 -65 -44 -53 -54 -76 -19 -45 18 16 20 17 15 2 -3 -9 0 -21 7
-27 8 -6 16 -37 20 -69 7 -64 16 -115 20 -119 2 -2 19 20 39 49 47 67 48 53 2
-17 -50 -75 -39 -110 51 -155 21 -11 41 -17 44 -12 4 4 29 39 55 77 27 39 61
84 74 100 58 70 213 214 288 269 74 52 83 63 98 110 9 28 29 79 46 113 16 34
29 68 29 76 0 8 10 22 21 33 22 19 22 19 10 -3 -6 -12 -11 -25 -11 -30 1 -4
14 17 29 47 26 49 27 56 13 66 -15 11 -14 14 8 33 30 25 20 27 -26 5 -19 -9
-34 -22 -34 -29 0 -7 -9 -15 -21 -18 -15 -4 -19 -1 -17 11 3 17 73 62 127 80
37 13 71 39 71 55 0 8 -20 6 -67 -9 -15 -5 -15 -4 2 7 21 14 25 16 48 18 7 0
22 8 33 16 33 25 -4 17 -111 -24z m0 -21 c3 -5 1 -10 -4 -10 -6 0 -11 5 -11
10 0 6 2 10 4 10 3 0 8 -4 11 -10z m-35 -20 c-24 -15 -36 -11 -14 4 10 8 21
12 24 10 2 -3 -2 -9 -10 -14z m0 -100 c0 -5 -2 -10 -4 -10 -3 0 -8 5 -11 10
-3 6 -1 10 4 10 6 0 11 -4 11 -10z m-455 -160 c-3 -5 -12 -10 -18 -10 -7 0 -6
4 3 10 19 12 23 12 15 0z m-155 -354 c0 -2 -7 -9 -15 -16 -13 -11 -14 -10 -9
4 5 14 24 23 24 12z m-34 -51 c-1 -8 -7 -20 -13 -26 -13 -13 -13 7 0 29 11 16
16 15 13 -3z"/>
<path d="M2673 4702 c-9 -5 3 -16 33 -31 26 -12 49 -19 52 -17 3 3 -9 11 -26
17 -18 6 -29 16 -25 22 3 5 1 7 -5 3 -5 -3 -12 -2 -14 4 -1 5 -9 6 -15 2z"/>
<path d="M1630 4685 c-7 -9 -11 -18 -8 -20 3 -3 11 1 18 10 7 9 11 18 8 20 -3
3 -11 -1 -18 -10z"/>
<path d="M2415 4513 c9 -20 18 -39 22 -42 5 -6 3 2 -13 59 -3 11 -10 20 -15
20 -5 0 -2 -17 6 -37z"/>
<path d="M1125 4490 c3 -5 8 -10 11 -10 2 0 4 5 4 10 0 6 -5 10 -11 10 -5 0
-7 -4 -4 -10z"/>
<path d="M2456 4447 c3 -10 9 -15 12 -12 3 3 0 11 -7 18 -10 9 -11 8 -5 -6z"/>
<path d="M3098 4301 c-18 -16 -48 -32 -65 -35 -18 -4 -35 -12 -38 -17 -4 -5
-17 -9 -29 -9 -13 0 -29 -7 -36 -15 -7 -8 -18 -15 -26 -15 -30 0 -23 -24 23
-73 114 -121 213 -310 248 -474 3 -18 10 -33 14 -33 5 0 28 16 52 35 24 19 49
35 55 35 20 0 91 95 107 144 18 53 23 151 8 141 -5 -3 -12 -1 -16 5 -3 5 -2
10 2 10 19 0 11 54 -13 96 -14 24 -21 44 -16 44 5 0 13 -10 16 -22 8 -28 34
-64 41 -56 6 5 -50 109 -86 160 -12 16 -24 27 -27 24 -3 -3 3 -15 14 -27 10
-12 18 -24 16 -28 -1 -3 5 -14 13 -23 8 -10 11 -18 6 -18 -5 0 -17 12 -27 28
-59 90 -120 152 -151 152 l-24 0 24 -32 c13 -18 28 -40 32 -48 7 -12 6 -13 -7
-3 -8 7 -18 10 -22 6 -4 -4 -4 0 -1 8 6 16 -29 69 -45 69 -5 0 -24 -13 -42
-29z"/>
<path d="M765 4200 c-10 -11 -13 -20 -8 -20 13 0 38 29 31 35 -3 3 -13 -4 -23
-15z"/>
<path d="M1923 4035 c-34 -7 -71 -18 -82 -25 -14 -7 -32 -8 -54 -2 -38 11
-110 -13 -136 -44 -9 -10 -27 -24 -41 -30 -50 -23 -166 -103 -212 -148 -34
-33 -48 -54 -48 -73 0 -21 -3 -24 -10 -13 -7 12 -11 10 -18 -10 -5 -14 -17
-43 -26 -64 -16 -39 -14 -76 5 -76 5 0 9 9 9 19 0 11 4 22 9 26 6 3 5 -10 -1
-31 -5 -21 -8 -57 -6 -81 3 -41 2 -43 -11 -24 -7 12 -17 21 -22 21 -16 0 -9
-37 11 -62 10 -14 16 -29 12 -33 -4 -5 -2 -5 5 -1 7 4 22 -11 39 -39 14 -25
34 -50 44 -55 23 -12 53 -13 46 -1 -14 22 110 21 125 -1 7 -11 97 36 181 95
37 26 70 47 73 47 4 0 24 14 45 30 21 17 42 30 48 30 5 0 15 7 22 15 9 10 9
15 1 15 -6 0 -11 5 -11 10 0 6 7 10 15 10 17 0 21 25 5 35 -5 3 -29 6 -53 7
-33 0 -50 -5 -66 -21 -25 -25 -201 -140 -260 -171 -61 -31 -95 -26 -142 18
-57 52 -62 102 -23 197 36 85 86 136 195 201 45 26 94 58 109 70 36 31 125 54
230 61 147 9 177 -10 206 -129 18 -73 20 -59 -38 -248 -6 -19 -33 -69 -60
-110 -45 -69 -37 -66 20 6 13 16 8 7 -9 -21 -18 -27 -45 -61 -61 -74 -42 -34
-73 -87 -103 -177 -27 -80 -29 -154 -6 -162 6 -2 11 -10 11 -17 0 -19 59 -66
73 -59 32 19 37 27 26 40 -9 11 -8 14 5 14 23 0 20 16 -8 38 -13 10 -26 32
-28 48 -2 17 -8 28 -16 26 -10 -2 -10 2 0 18 7 11 17 20 21 20 5 0 5 10 2 21
-5 16 -4 19 6 14 9 -6 11 -2 7 13 -4 14 1 31 13 45 10 12 18 18 19 12 0 -5 15
13 33 40 18 28 40 59 49 70 47 56 88 117 88 128 0 7 7 22 15 34 20 28 33 139
16 128 -9 -5 -12 -2 -9 11 2 12 11 18 23 16 11 -2 16 1 10 5 -11 9 -11 68 0
96 11 27 -4 104 -22 111 -11 5 -14 2 -9 -9 3 -10 2 -13 -5 -9 -6 3 -8 21 -4
45 7 38 -9 69 -39 76 -54 13 -66 14 -66 5 0 -5 11 -17 25 -26 13 -9 29 -26 36
-37 11 -21 11 -21 -14 -3 -14 11 -23 22 -21 25 2 4 -8 10 -22 13 -15 4 -24 10
-20 13 3 3 -9 15 -27 26 -29 18 -30 20 -12 28 34 13 -42 9 -112 -6z m-73 -61
c0 -2 -9 -4 -20 -4 -11 0 -20 4 -20 9 0 5 9 7 20 4 11 -3 20 -7 20 -9z m-122
-19 c-2 -1 -14 -8 -28 -15 -25 -13 -25 -13 -6 8 10 12 23 19 28 16 5 -3 8 -7
6 -9z m-150 -107 c-4 -17 -29 -35 -53 -40 -11 -1 -39 -22 -62 -46 -24 -24 -43
-39 -43 -33 0 5 15 22 33 37 17 15 32 32 32 38 0 6 15 16 33 22 17 5 37 15 44
22 15 15 19 15 16 0z m252 -353 c-12 -13 -25 -24 -29 -23 -25 3 -43 -7 -79
-43 -22 -23 -46 -39 -53 -37 -7 2 15 25 48 50 67 51 103 72 103 61 0 -4 5 -2
12 5 23 23 21 12 -2 -13z m275 -29 c-10 -25 -21 -43 -25 -41 -4 3 2 25 13 50
26 57 35 51 12 -9z m-771 -52 c3 -8 2 -12 -4 -9 -6 3 -10 10 -10 16 0 14 7 11
14 -7z"/>
<path d="M545 3916 c-40 -63 -119 -219 -130 -256 -4 -18 1 -13 19 15 14 22 26
46 26 53 0 6 4 12 10 12 5 0 7 7 4 15 -5 11 -2 13 9 9 13 -5 14 -10 4 -32 -6
-15 -21 -40 -34 -55 -12 -15 -28 -46 -34 -67 -7 -22 -16 -40 -20 -40 -15 0
-47 -74 -67 -153 -19 -74 -16 -106 4 -49 9 24 10 22 8 -20 -4 -69 -26 -201
-36 -213 -6 -6 -7 -3 -3 8 4 9 3 17 -3 17 -13 0 -25 -74 -20 -116 l4 -29 11
25 c11 24 12 24 12 3 1 -33 20 -28 69 17 24 22 46 40 51 40 4 0 23 14 42 30
73 64 80 73 68 80 -8 5 -8 10 -1 14 6 4 8 14 5 23 -5 14 -1 15 30 10 23 -4 37
-2 37 5 0 7 5 6 15 -2 8 -7 22 -9 31 -6 13 5 15 2 11 -15 -3 -12 -2 -18 2 -13
4 5 17 47 28 94 11 47 37 127 58 178 20 52 35 96 32 99 -3 2 -13 6 -24 7 -10
2 -23 11 -28 22 -6 10 -17 20 -25 22 -25 4 -68 62 -75 99 -3 19 -14 37 -23 40
-9 4 -21 11 -25 17 -5 6 -5 1 -2 -11 4 -13 2 -23 -4 -23 -11 0 -23 -20 -75
-125 l-35 -70 5 48 c5 47 22 81 81 162 31 43 38 65 34 115 l-2 25 -26 -30
c-21 -25 -23 -26 -12 -5 21 36 39 80 34 80 -3 0 -21 -24 -40 -54z m-25 -96
c-6 -11 -12 -20 -14 -20 -2 0 -2 9 1 20 3 11 9 20 15 20 5 0 4 -9 -2 -20z
m-149 -347 c-12 -20 -14 -14 -5 12 4 9 9 14 11 11 3 -2 0 -13 -6 -23z"/>
<path d="M611 3950 c0 -14 4 -32 9 -40 8 -12 10 -12 9 5 0 11 -4 29 -9 40 -8
18 -9 18 -9 -5z"/>
<path d="M3446 3803 c-6 -14 -5 -15 5 -6 7 7 10 15 7 18 -3 3 -9 -2 -12 -12z"/>
<path d="M3443 3700 c-18 -20 -33 -41 -33 -45 0 -4 -11 -20 -25 -37 -14 -16
-25 -24 -25 -18 0 8 -7 7 -22 -4 -13 -9 -35 -21 -50 -27 -16 -6 -28 -14 -28
-18 0 -4 -16 -16 -35 -27 l-35 -19 0 -73 c0 -54 4 -74 14 -78 8 -3 12 -12 9
-20 -3 -8 -10 -11 -15 -8 -15 9 1 -37 20 -58 10 -12 11 -18 3 -18 -7 0 -10 -4
-7 -9 3 -5 15 -7 25 -4 10 3 22 0 25 -6 4 -6 1 -11 -6 -11 -7 -1 2 -7 21 -15
42 -19 47 -19 31 0 -11 14 -10 14 16 5 16 -6 29 -11 29 -10 0 1 19 -3 43 -9
59 -16 106 -6 123 27 16 34 21 217 8 292 -5 30 -11 71 -13 91 -1 19 -6 41 -10
47 -4 7 -2 12 5 12 8 0 7 5 -2 17 -8 9 -13 18 -11 20 1 1 2 12 2 23 0 30 -21
23 -57 -20z m-211 -395 c3 -13 1 -22 -3 -19 -9 5 -13 44 -5 44 2 0 6 -11 8
-25z"/>
<path d="M3553 3635 c0 -22 2 -30 4 -17 2 12 2 30 0 40 -3 9 -5 -1 -4 -23z"/>
<path d="M3288 3642 c-38 -23 -36 -36 2 -17 17 9 30 20 30 25 0 13 0 13 -32
-8z"/>
<path d="M3212 3580 c-13 -11 -22 -24 -20 -30 2 -6 14 3 26 19 26 36 25 37 -6
11z"/>
<path d="M3562 3560 c0 -19 2 -27 5 -17 2 9 2 25 0 35 -3 9 -5 1 -5 -18z"/>
<path d="M1270 3516 c0 -8 5 -18 10 -21 6 -3 10 1 10 9 0 8 -4 18 -10 21 -5 3
-10 -1 -10 -9z"/>
<path d="M312 3310 c0 -14 2 -19 5 -12 2 6 2 18 0 25 -3 6 -5 1 -5 -13z"/>
<path d="M1510 3280 c0 -5 6 -10 14 -10 8 0 18 5 21 10 3 6 -3 10 -14 10 -12
0 -21 -4 -21 -10z"/>
<path d="M3545 3263 c-14 -55 -15 -73 -6 -73 10 0 27 87 18 96 -2 3 -8 -8 -12
-23z"/>
<path d="M657 3203 c-4 -3 -7 -14 -7 -23 0 -10 -14 -34 -30 -55 -37 -47 -190
-163 -248 -189 -27 -13 -44 -27 -48 -43 -4 -12 -10 -20 -15 -17 -5 3 -9 -7 -8
-23 0 -24 1 -25 9 -8 7 18 8 18 15 -8 4 -15 5 -36 2 -47 -3 -11 -1 -18 4 -14
5 3 9 -6 9 -20 0 -13 -5 -26 -11 -28 -14 -5 10 -100 50 -198 34 -82 39 -90 50
-71 7 11 10 9 16 -8 6 -21 23 -22 320 -11 11 0 31 9 44 19 l25 19 -31 48 c-45
71 -88 176 -114 279 -18 74 -22 119 -23 248 -1 86 -1 157 -2 157 0 0 -4 -3 -7
-7z m-247 -478 c10 -54 18 -100 16 -102 -2 -2 -11 13 -21 32 -16 34 -35 187
-21 174 3 -3 15 -50 26 -104z m236 60 c11 -27 -2 -37 -14 -11 -7 16 -8 26 -1
26 5 0 12 -7 15 -15z m-296 -75 c0 -5 -2 -10 -4 -10 -3 0 -8 5 -11 10 -3 6 -1
10 4 10 6 0 11 -4 11 -10z m10 -30 c0 -5 -2 -10 -4 -10 -3 0 -8 5 -11 10 -3 6
-1 10 4 10 6 0 11 -4 11 -10z m8 -51 c-3 -8 -7 -3 -11 10 -4 17 -3 21 5 13 5
-5 8 -16 6 -23z m30 -76 c11 -29 18 -53 16 -53 -6 0 -28 51 -39 90 -12 42 2
18 23 -37z"/>
<path d="M3145 3114 c-8 -20 -15 -40 -15 -44 0 -20 -80 -202 -115 -260 -21
-36 -38 -72 -38 -80 0 -8 -8 -24 -18 -35 -18 -20 -17 -20 59 -17 48 2 81 8 87
16 6 7 34 19 64 27 34 8 68 27 95 50 22 20 45 36 49 37 5 0 26 16 47 35 21 19
46 37 54 40 9 4 16 15 16 25 0 10 4 22 10 28 8 8 60 137 60 150 0 3 -29 3 -63
-1 -57 -6 -70 -4 -120 20 -32 14 -57 31 -57 36 0 14 -38 11 -42 -3 -4 -10 -10
-10 -31 -1 -26 12 -28 11 -42 -23z"/>
<path d="M434 3055 c-16 -12 -17 -14 -3 -15 9 0 19 7 23 15 7 19 5 19 -20 0z"/>
<path d="M3315 2742 c-5 -4 -19 -18 -30 -31 l-20 -25 30 21 c17 11 39 25 50
31 l20 11 -20 1 c-11 0 -24 -4 -30 -8z"/>
<path d="M2100 2721 c0 -5 -9 -7 -20 -4 -32 9 -70 -5 -63 -23 3 -9 1 -14 -7
-12 -14 3 -21 -35 -10 -52 4 -6 24 -13 46 -16 38 -6 39 -6 17 10 -28 20 -30
36 -5 36 11 0 22 -13 30 -32 7 -20 15 -29 20 -22 4 6 13 13 21 16 19 6 23 38
5 38 -8 0 -14 5 -14 10 0 6 7 10 15 10 12 0 13 4 3 25 -11 24 -38 35 -38 16z"/>
<path d="M3292 2688 c-8 -8 -9 -15 -1 -25 9 -10 4 -16 -24 -28 -20 -8 -40 -15
-45 -15 -4 0 -18 -9 -30 -20 -12 -12 -23 -16 -27 -10 -15 24 -98 -2 -88 -27 3
-8 -3 -24 -14 -36 -20 -22 -43 -60 -43 -72 0 -3 16 6 35 21 26 20 34 22 29 9
-6 -15 -4 -16 17 -4 13 6 31 15 39 19 8 4 17 15 18 25 3 11 0 15 -8 10 -7 -5
-7 0 2 14 10 18 14 19 16 6 3 -13 7 -14 18 -4 13 11 14 9 9 -14 -11 -41 23
-24 71 36 48 61 56 80 46 107 -6 16 -10 18 -20 8z"/>
<path d="M2852 2572 c-23 -26 -49 -56 -57 -67 -13 -20 -14 -20 -42 6 -15 14
-36 31 -46 38 -16 13 -17 12 -7 -15 11 -28 11 -28 -9 -9 -12 10 -21 14 -21 10
0 -5 -7 0 -15 11 -25 33 -18 -6 10 -55 32 -56 32 -71 -1 -40 l-26 24 7 -24 c5
-17 4 -21 -5 -16 -8 5 -8 1 1 -13 18 -28 5 -38 -31 -25 -28 11 -30 10 -30 -14
0 -16 -14 -38 -42 -63 -45 -43 -298 -175 -353 -186 -19 -3 -40 -13 -46 -21 -7
-8 -8 -13 -3 -12 30 5 33 -2 28 -67 -5 -63 -41 -150 -61 -148 -12 2 -32 -29
-33 -50 0 -20 0 -20 16 0 15 19 15 18 11 -3 -6 -27 6 -29 47 -8 20 10 33 12
41 5 6 -5 15 -7 18 -3 4 3 7 1 7 -5 0 -7 -3 -12 -7 -13 -14 -1 -57 -8 -78 -13
-11 -2 -24 -5 -28 -5 -5 -1 -5 -6 -1 -13 4 -7 3 -8 -4 -4 -7 4 -22 -2 -34 -13
l-22 -21 23 0 c12 0 19 -4 16 -10 -4 -6 -10 -8 -14 -6 -4 3 -13 1 -21 -5 -45
-28 160 20 286 66 75 29 116 55 46 31 -23 -8 -42 -11 -42 -6 0 6 6 10 14 10 7
0 19 7 26 15 15 19 6 19 -53 1 -26 -8 -47 -11 -47 -6 0 4 14 10 31 14 17 3 66
21 109 40 73 32 80 33 101 18 12 -8 19 -11 16 -5 -4 7 6 16 25 22 43 15 48 13
13 -6 -17 -9 -24 -18 -18 -20 19 -7 134 60 129 74 -3 7 -1 15 4 18 10 6 -14
57 -35 75 -8 6 -19 9 -25 5 -5 -3 -10 -2 -10 4 0 6 -11 13 -25 17 -13 3 -27
15 -30 25 -6 19 -14 20 -105 23 -20 1 -25 6 -23 24 2 13 -1 21 -6 18 -5 -3
-11 3 -14 14 -4 16 2 22 31 30 67 18 118 12 184 -22 64 -34 98 -61 98 -78 0
-5 6 -13 14 -17 25 -14 56 -79 59 -121 2 -32 11 -50 37 -78 19 -19 44 -40 55
-46 13 -7 8 2 -12 24 -18 19 -33 38 -33 43 0 5 20 -14 45 -42 25 -29 59 -62
75 -73 l30 -21 10 25 c5 14 20 42 33 63 36 58 37 68 14 83 -21 12 -21 12 -7
-6 8 -10 -3 -3 -24 16 -42 39 -74 90 -55 90 6 0 9 8 5 18 -5 13 -3 13 9 -3 8
-11 38 -43 67 -72 l51 -52 53 46 c30 25 54 50 54 55 0 6 -37 48 -82 94 l-81
84 53 61 c39 44 55 71 57 95 2 38 3 37 -31 24 -31 -11 -59 -3 -52 16 8 20 -4
17 -29 -6 -21 -19 -22 -20 -42 -3 -23 20 -19 43 16 108 18 34 19 40 6 43 -9 2
-23 -2 -31 -9 -11 -9 -18 -9 -32 3 -9 8 -26 18 -37 23 -13 5 -15 9 -7 12 12 5
7 23 -6 23 -4 0 -26 -22 -50 -48z m98 -157 c-7 -9 -15 -13 -17 -11 -7 7 7 26
19 26 6 0 6 -6 -2 -15z m184 -48 c-3 -8 -12 -18 -20 -21 -11 -4 -11 0 2 20 18
26 28 27 18 1z m-559 -326 c-17 -16 -148 -82 -152 -77 -3 3 19 17 49 32 29 16
62 34 73 40 25 15 43 18 30 5z m249 -97 c5 -14 4 -15 -9 -4 -17 14 -19 20 -6
20 5 0 12 -7 15 -16z m-564 -118 c0 -9 -30 -14 -35 -6 -4 6 3 10 14 10 12 0
21 -2 21 -4z m60 -26 c0 -5 -10 -10 -23 -10 -13 0 -27 -3 -31 -7 -3 -4 -14 -8
-23 -9 -27 -4 0 14 37 24 19 6 36 11 38 11 1 1 2 -3 2 -9z m-160 -44 c0 -2 -9
-6 -20 -9 -11 -3 -20 -1 -20 4 0 5 9 9 20 9 11 0 20 -2 20 -4z"/>
<path d="M2555 2420 c3 -5 8 -10 11 -10 2 0 4 5 4 10 0 6 -5 10 -11 10 -5 0
-7 -4 -4 -10z"/>
<path d="M847 2358 c-11 -9 -49 -13 -105 -12 -48 1 -92 -2 -98 -7 -6 -5 -23
-10 -38 -11 -14 -1 -26 -6 -26 -11 0 -5 -14 -7 -30 -3 -29 5 -30 4 -19 -17 6
-12 25 -36 41 -54 19 -19 27 -36 23 -44 -6 -8 -4 -10 5 -4 9 5 10 2 6 -12 -6
-20 30 -80 42 -68 3 3 -5 16 -18 30 -13 14 -19 25 -13 25 5 0 18 -9 29 -21 10
-11 41 -37 69 -57 27 -20 58 -43 67 -51 9 -8 27 -16 40 -18 16 -2 19 0 10 6
-8 4 -14 12 -15 17 -1 5 -5 8 -9 7 -7 -3 -74 76 -78 92 -1 6 -16 27 -32 48
-17 21 -28 41 -24 44 3 4 6 2 6 -4 0 -6 9 -13 19 -16 11 -2 36 -31 57 -63 21
-33 53 -77 71 -98 18 -21 30 -42 28 -47 -12 -18 181 -163 229 -174 67 -14 116
-39 116 -60 0 -12 41 -35 63 -35 26 0 29 200 4 228 -8 9 -18 29 -22 44 -4 15
-13 29 -21 32 -8 3 -14 18 -14 32 0 15 3 24 7 21 9 -10 35 31 28 44 -4 6 -14
8 -22 5 -8 -3 -12 -2 -8 3 3 5 -31 29 -76 53 -44 23 -112 71 -150 105 -72 65
-106 77 -142 51z m-244 -93 c23 -32 17 -32 -13 0 -13 14 -19 25 -14 25 5 0 17
-12 27 -25z m337 -151 c0 -10 -36 16 -60 42 -23 26 -22 25 18 -5 23 -18 42
-35 42 -37z"/>
<path d="M517 2271 c15 -22 30 -38 32 -36 6 7 -40 75 -50 75 -6 0 2 -18 18
-39z"/>
<path d="M2505 2168 c11 -6 23 -16 27 -22 5 -8 8 -7 8 2 0 6 10 12 23 12 18 0
19 2 7 10 -8 5 -31 10 -50 10 -31 -1 -33 -2 -15 -12z"/>
<path d="M1318 2090 c17 -19 32 -40 32 -48 0 -7 11 -38 25 -68 17 -38 25 -72
25 -112 0 -93 10 -132 34 -137 96 -21 311 -30 362 -16 25 7 57 27 80 51 22 22
44 40 49 40 18 0 69 50 72 71 5 32 42 109 53 109 6 0 10 11 10 25 0 14 -4 25
-9 25 -5 0 -12 14 -16 31 -6 25 -11 30 -28 25 -70 -17 -224 -36 -297 -36 -91
0 -231 20 -320 46 -110 32 -109 32 -72 -6z m354 -288 c-12 -8 -72 -4 -72 4 0
2 19 4 43 4 25 0 37 -4 29 -8z m108 -42 c0 -5 -5 -10 -11 -10 -5 0 -7 5 -4 10
3 6 8 10 11 10 2 0 4 -4 4 -10z"/>
<path d="M2091 2085 c13 -8 23 -16 21 -19 -1 -4 2 -14 8 -24 9 -14 10 -12 4 8
-4 14 -7 30 -7 36 0 6 -12 12 -25 12 l-25 0 24 -13z"/>
<path d="M745 2020 c10 -11 20 -20 23 -20 3 0 -3 9 -13 20 -10 11 -20 20 -23
20 -3 0 3 -9 13 -20z"/>
<path d="M2990 2016 c0 -2 8 -10 18 -17 15 -13 16 -12 3 4 -13 16 -21 21 -21
13z"/>
<path d="M1300 1988 c1 -7 12 -33 25 -58 21 -38 24 -40 19 -15 -11 51 -45 108
-44 73z"/>
<path d="M790 1980 c0 -5 5 -10 11 -10 5 0 7 5 4 10 -3 6 -8 10 -11 10 -2 0
-4 -4 -4 -10z"/>
<path d="M3240 1942 c-55 -35 -140 -133 -140 -163 0 -13 -23 -52 -35 -61 -6
-4 -1 -14 13 -24 19 -13 21 -19 11 -31 -10 -12 -3 -23 40 -66 28 -29 49 -44
45 -34 -4 11 -1 17 7 18 106 7 141 15 155 33 15 21 62 38 66 25 2 -6 15 2 28
17 19 21 21 26 7 21 -11 -4 -16 -3 -12 3 3 5 19 8 36 6 16 -2 32 0 35 5 7 11
30 1 32 -14 0 -7 3 -21 7 -32 5 -16 -4 -25 -47 -49 -29 -16 -70 -44 -90 -61
-21 -17 -56 -38 -78 -45 -28 -9 -39 -18 -36 -27 3 -8 1 -11 -4 -8 -29 18 -2
-18 55 -75 64 -63 91 -75 38 -16 -16 17 -3 8 27 -19 131 -119 148 -137 143
-155 -4 -14 29 -55 115 -147 137 -146 172 -180 172 -167 0 6 -6 16 -12 24 -7
8 -4 7 8 -3 23 -19 44 -22 44 -6 0 5 4 8 9 5 5 -4 11 0 14 6 3 10 7 10 18 2
37 -30 249 10 249 47 0 6 3 8 8 5 4 -2 23 -1 41 3 l34 6 -111 120 c-61 66
-152 160 -202 210 -73 71 -93 86 -101 75 -5 -8 -9 -26 -8 -40 3 -40 -11 -79
-26 -74 -8 4 -15 -6 -20 -25 -3 -16 -13 -35 -21 -42 -8 -6 -14 -18 -14 -25 0
-8 -9 -14 -20 -14 -10 0 -24 -9 -30 -20 -14 -27 -44 -27 -37 0 3 11 1 18 -4
14 -5 -3 -9 -1 -9 5 0 6 -11 6 -30 1 -19 -5 -28 -5 -25 1 4 5 12 9 19 9 7 0
36 41 64 91 43 74 52 99 52 138 0 26 -4 51 -10 57 -6 6 -6 15 0 24 9 13 11 13
20 0 8 -12 10 -11 10 8 0 13 -6 22 -15 22 -8 0 -14 4 -13 9 3 10 -233 263
-347 373 -41 40 -72 63 -76 56 -4 -7 -10 -5 -15 5 -8 13 -12 13 -34 -1z m-45
-122 c10 -11 16 -20 13 -20 -3 0 -13 9 -23 20 -10 11 -16 20 -13 20 3 0 13 -9
23 -20z m0 -180 c21 -22 37 -40 34 -40 -3 0 -23 18 -44 40 -21 22 -37 40 -34
40 3 0 23 -18 44 -40z m450 -278 c-7 -7 -55 39 -55 52 0 5 13 -3 30 -19 16
-16 28 -31 25 -33z m392 -382 c9 0 43 -52 43 -65 0 -5 -18 13 -41 39 -22 25
-48 46 -57 46 -11 0 -5 -10 18 -31 l35 -31 -40 30 c-56 42 -83 74 -67 79 6 3
9 10 5 16 -3 7 17 -9 45 -35 28 -27 55 -48 59 -48z m-323 34 c3 -8 2 -12 -4
-9 -6 3 -10 10 -10 16 0 14 7 11 14 -7z"/>
<path d="M3950 1036 c0 -2 8 -10 18 -17 15 -13 16 -12 3 4 -13 16 -21 21 -21
13z"/>
<path d="M1005 1850 c8 -13 100 -60 117 -60 11 0 -109 70 -120 70 -2 0 0 -5 3
-10z"/>
<path d="M2000 1790 c-14 -11 -20 -20 -14 -20 6 0 19 9 29 20 23 25 17 25 -15
0z"/>
<path d="M1328 1753 c7 -3 16 -2 19 1 4 3 -2 6 -13 5 -11 0 -14 -3 -6 -6z"/>
<path d="M1351 1716 c2 -2 27 -6 54 -10 34 -4 43 -3 30 3 -19 9 -93 15 -84 7z"/>
<path d="M1775 1690 c-18 -8 -17 -9 8 -9 16 -1 26 3 22 9 -3 6 -7 10 -8 9 -1
0 -11 -4 -22 -9z"/>
<path d="M3470 1669 c0 -5 9 -9 21 -9 13 0 18 -4 13 -12 -4 -7 -3 -8 5 -4 6 4
9 11 6 15 -7 13 -45 21 -45 10z"/>
<path d="M3802 1371 c-17 -48 -14 -63 4 -22 8 19 13 39 11 45 -2 6 -9 -5 -15
-23z"/>
<path d="M4238 933 c21 -8 13 -23 -13 -23 -26 0 -33 -14 -14 -26 6 -3 16 -1
22 5 16 16 37 13 37 -5 0 -9 -6 -14 -12 -11 -7 2 -37 -9 -65 -25 -29 -16 -53
-25 -53 -21 0 4 -4 2 -9 -6 -5 -8 -18 -16 -28 -17 -42 -5 -136 -24 -140 -27
-2 -2 19 -27 47 -56 47 -48 62 -70 41 -57 -5 4 -7 -3 -4 -13 3 -11 71 -88 151
-171 81 -84 151 -158 155 -166 4 -8 13 -14 18 -14 6 0 -7 21 -27 47 -35 45
-34 44 28 -15 l65 -63 38 25 c46 31 56 32 80 6 22 -25 47 -27 38 -3 -4 11 -3
14 6 9 10 -6 9 -3 0 13 -9 13 -16 16 -20 9 -10 -16 -31 1 -24 21 3 9 -2 26
-10 37 -30 40 -13 35 33 -10 27 -26 56 -46 69 -46 39 0 34 17 -10 34 -24 9
-63 36 -87 61 -47 48 -41 63 7 19 68 -64 113 -71 53 -9 -28 29 -31 35 -15 35
10 0 30 -10 44 -22 22 -20 23 -20 8 -2 -9 11 -14 23 -11 27 3 3 16 -6 29 -21
l23 -27 13 28 c12 26 10 30 -57 100 -38 39 -92 96 -118 125 -27 28 -53 52 -57
52 -4 0 -10 -19 -14 -42 -8 -43 -10 -50 -38 -106 -9 -19 -17 -41 -17 -49 0 -8
-13 -30 -29 -48 -21 -24 -32 -30 -40 -22 -8 8 -11 8 -11 -1 0 -15 -36 -52 -44
-45 -3 4 0 13 6 22 10 13 10 14 -2 4 -11 -11 -19 -8 -42 14 -15 15 -28 30 -28
34 0 5 12 -3 26 -16 27 -26 47 -25 38 0 -4 8 -11 12 -17 8 -6 -4 -1 9 11 29
25 40 92 202 92 223 0 7 4 15 8 17 5 2 12 19 15 38 5 25 4 31 -3 20 -8 -12
-10 -11 -10 7 0 27 -98 123 -125 122 -11 0 -14 -3 -7 -6z m-44 -419 c3 -8 2
-12 -4 -9 -6 3 -10 10 -10 16 0 14 7 11 14 -7z"/>
<path d="M3955 860 c4 -6 11 -8 16 -5 14 9 11 15 -7 15 -8 0 -12 -5 -9 -10z"/>
<path d="M4018 863 c6 -2 18 -2 25 0 6 3 1 5 -13 5 -14 0 -19 -2 -12 -5z"/>
<path d="M4430 716 c-6 -9 -10 -21 -7 -28 4 -9 6 -7 6 4 1 9 7 18 14 21 6 2 9
7 6 11 -3 4 -12 0 -19 -8z"/>
<path d="M4306 494 c-4 -9 -4 -19 -1 -22 2 -3 7 3 11 12 4 9 4 19 1 22 -2 3
-7 -3 -11 -12z"/>
<path d="M4696 402 c-3 -5 3 -17 13 -26 13 -12 21 -14 26 -6 4 6 5 12 4 13 -2
2 -11 8 -21 15 -9 7 -19 9 -22 4z"/>
<path d="M4470 286 c0 -14 29 -63 45 -76 13 -11 18 -11 28 0 9 10 9 11 -1 6
-7 -5 -15 1 -21 16 -9 23 -51 68 -51 54z"/>
</g>
</svg>
